<mxfile modified="2023-03-29T10:24:19.557Z" host="app.diagrams.net" agent="Mozilla/5.0 (Macintosh; Intel Mac OS X 10_15_7) AppleWebKit/605.1.15 (KHTML, like Gecko) Version/15.6.1 Safari/605.1.15" etag="ekmb7W1-PDE37oP77ZDa" version="21.1.1" type="github">
  <diagram id="Ht1M8jgEwFfnCIfOTk4-" name="Page-1">
    <mxGraphModel dx="2417" dy="2069" grid="1" gridSize="10" guides="1" tooltips="1" connect="1" arrows="1" fold="1" page="1" pageScale="1" pageWidth="827" pageHeight="1169" math="0" shadow="0">
      <root>
        <mxCell id="0" />
        <mxCell id="1" parent="0" />
        <mxCell id="lO95gF8njXk3iiTlrD5B-10" value="&lt;font style=&quot;font-size: 19px;&quot;&gt;VPC e.g CIDR 10.0.0.0/16&lt;/font&gt;" style="points=[[0,0],[0.25,0],[0.5,0],[0.75,0],[1,0],[1,0.25],[1,0.5],[1,0.75],[1,1],[0.75,1],[0.5,1],[0.25,1],[0,1],[0,0.75],[0,0.5],[0,0.25]];outlineConnect=0;html=1;whiteSpace=wrap;fontSize=12;fontStyle=0;container=1;pointerEvents=0;collapsible=0;recursiveResize=0;shape=mxgraph.aws4.group;grIcon=mxgraph.aws4.group_vpc;strokeColor=#9673a6;fillColor=#e1d5e7;verticalAlign=top;align=left;spacingLeft=30;dashed=0;movable=1;resizable=1;rotatable=1;deletable=1;editable=1;locked=0;connectable=1;" vertex="1" parent="1">
          <mxGeometry x="-190" y="60" width="1250" height="820" as="geometry" />
        </mxCell>
        <mxCell id="lO95gF8njXk3iiTlrD5B-11" value="&lt;font style=&quot;font-size: 17px;&quot;&gt;Availability Zone 1a&lt;/font&gt;" style="dashed=1;verticalAlign=top;fontStyle=0;whiteSpace=wrap;html=1;movable=1;resizable=1;rotatable=1;deletable=1;editable=1;locked=0;connectable=1;fillColor=#dae8fc;strokeColor=#6c8ebf;opacity=50;strokeWidth=2;" vertex="1" parent="lO95gF8njXk3iiTlrD5B-10">
          <mxGeometry x="70" y="30" width="480" height="760" as="geometry" />
        </mxCell>
        <mxCell id="lO95gF8njXk3iiTlrD5B-12" value="&lt;font style=&quot;font-size: 17px;&quot;&gt;Availability Zone 1b&lt;/font&gt;" style="fillColor=#dae8fc;strokeColor=#6c8ebf;dashed=1;verticalAlign=top;fontStyle=0;whiteSpace=wrap;html=1;movable=1;resizable=1;rotatable=1;deletable=1;editable=1;locked=0;connectable=1;opacity=50;strokeWidth=2;" vertex="1" parent="lO95gF8njXk3iiTlrD5B-10">
          <mxGeometry x="710" y="30" width="480" height="760" as="geometry" />
        </mxCell>
        <mxCell id="lO95gF8njXk3iiTlrD5B-17" value="&lt;font style=&quot;font-size: 18px;&quot;&gt;Public subnet e.g CIDR 10.0.1.0/26&lt;/font&gt;" style="points=[[0,0],[0.25,0],[0.5,0],[0.75,0],[1,0],[1,0.25],[1,0.5],[1,0.75],[1,1],[0.75,1],[0.5,1],[0.25,1],[0,1],[0,0.75],[0,0.5],[0,0.25]];outlineConnect=0;gradientColor=none;html=1;whiteSpace=wrap;fontSize=12;fontStyle=0;container=1;pointerEvents=0;collapsible=0;recursiveResize=0;shape=mxgraph.aws4.group;grIcon=mxgraph.aws4.group_security_group;grStroke=0;strokeColor=#248814;fillColor=#E9F3E6;verticalAlign=top;align=left;spacingLeft=30;fontColor=#248814;dashed=1;movable=1;resizable=1;rotatable=1;deletable=1;editable=1;locked=0;connectable=1;shadow=1;opacity=60;strokeWidth=2;" vertex="1" parent="lO95gF8njXk3iiTlrD5B-10">
          <mxGeometry x="30" y="60" width="1200" height="230" as="geometry" />
        </mxCell>
        <mxCell id="lO95gF8njXk3iiTlrD5B-23" value="" style="sketch=0;points=[[0,0,0],[0.25,0,0],[0.5,0,0],[0.75,0,0],[1,0,0],[0,1,0],[0.25,1,0],[0.5,1,0],[0.75,1,0],[1,1,0],[0,0.25,0],[0,0.5,0],[0,0.75,0],[1,0.25,0],[1,0.5,0],[1,0.75,0]];outlineConnect=0;fontColor=#232F3E;gradientColor=#F78E04;gradientDirection=north;fillColor=#D05C17;strokeColor=#ffffff;dashed=0;verticalLabelPosition=bottom;verticalAlign=top;align=center;html=1;fontSize=12;fontStyle=0;aspect=fixed;shape=mxgraph.aws4.resourceIcon;resIcon=mxgraph.aws4.compute;movable=1;resizable=1;rotatable=1;deletable=1;editable=1;locked=0;connectable=1;" vertex="1" parent="lO95gF8njXk3iiTlrD5B-17">
          <mxGeometry x="840" y="50" width="78" height="78" as="geometry" />
        </mxCell>
        <mxCell id="lO95gF8njXk3iiTlrD5B-39" value="&lt;font style=&quot;font-size: 19px;&quot;&gt;Database Slave (read only)&lt;/font&gt;" style="rounded=0;whiteSpace=wrap;html=1;" vertex="1" parent="lO95gF8njXk3iiTlrD5B-10">
          <mxGeometry x="810" y="710" width="310" height="40" as="geometry" />
        </mxCell>
        <mxCell id="lO95gF8njXk3iiTlrD5B-34" value="&lt;font style=&quot;font-size: 19px;&quot;&gt;Database Master&lt;/font&gt;" style="rounded=0;whiteSpace=wrap;html=1;" vertex="1" parent="lO95gF8njXk3iiTlrD5B-10">
          <mxGeometry x="208" y="710" width="160" height="40" as="geometry" />
        </mxCell>
        <mxCell id="lO95gF8njXk3iiTlrD5B-59" value="" style="rounded=0;whiteSpace=wrap;html=1;" vertex="1" parent="lO95gF8njXk3iiTlrD5B-10">
          <mxGeometry x="800" y="140" width="310" height="150" as="geometry" />
        </mxCell>
        <mxCell id="lO95gF8njXk3iiTlrD5B-30" value="" style="sketch=0;outlineConnect=0;fontColor=#232F3E;gradientColor=none;fillColor=#4D27AA;strokeColor=none;dashed=0;verticalLabelPosition=bottom;verticalAlign=top;align=center;html=1;fontSize=12;fontStyle=0;aspect=fixed;pointerEvents=1;shape=mxgraph.aws4.nat_gateway;" vertex="1" parent="lO95gF8njXk3iiTlrD5B-10">
          <mxGeometry x="1000" y="110" width="78" height="78" as="geometry" />
        </mxCell>
        <mxCell id="lO95gF8njXk3iiTlrD5B-62" value="" style="rounded=0;whiteSpace=wrap;html=1;" vertex="1" parent="lO95gF8njXk3iiTlrD5B-10">
          <mxGeometry x="170" y="370" width="250" height="140" as="geometry" />
        </mxCell>
        <mxCell id="lO95gF8njXk3iiTlrD5B-63" value="" style="rounded=0;whiteSpace=wrap;html=1;" vertex="1" parent="lO95gF8njXk3iiTlrD5B-10">
          <mxGeometry x="880" y="590" width="200" height="120" as="geometry" />
        </mxCell>
        <mxCell id="lO95gF8njXk3iiTlrD5B-64" value="" style="rounded=0;whiteSpace=wrap;html=1;" vertex="1" parent="lO95gF8njXk3iiTlrD5B-10">
          <mxGeometry x="170" y="590" width="248" height="120" as="geometry" />
        </mxCell>
        <mxCell id="lO95gF8njXk3iiTlrD5B-58" value="" style="rounded=0;whiteSpace=wrap;html=1;" vertex="1" parent="lO95gF8njXk3iiTlrD5B-10">
          <mxGeometry x="875" y="370" width="210" height="140" as="geometry" />
        </mxCell>
        <mxCell id="lO95gF8njXk3iiTlrD5B-24" value="" style="sketch=0;points=[[0,0,0],[0.25,0,0],[0.5,0,0],[0.75,0,0],[1,0,0],[0,1,0],[0.25,1,0],[0.5,1,0],[0.75,1,0],[1,1,0],[0,0.25,0],[0,0.5,0],[0,0.75,0],[1,0.25,0],[1,0.5,0],[1,0.75,0]];outlineConnect=0;fontColor=#232F3E;gradientColor=#F78E04;gradientDirection=north;fillColor=#D05C17;strokeColor=#ffffff;dashed=0;verticalLabelPosition=bottom;verticalAlign=top;align=center;html=1;fontSize=12;fontStyle=0;aspect=fixed;shape=mxgraph.aws4.resourceIcon;resIcon=mxgraph.aws4.compute;movable=1;resizable=1;rotatable=1;deletable=1;editable=1;locked=0;connectable=1;" vertex="1" parent="lO95gF8njXk3iiTlrD5B-10">
          <mxGeometry x="941" y="401" width="78" height="78" as="geometry" />
        </mxCell>
        <mxCell id="lO95gF8njXk3iiTlrD5B-60" value="" style="rounded=0;whiteSpace=wrap;html=1;" vertex="1" parent="lO95gF8njXk3iiTlrD5B-10">
          <mxGeometry x="79" y="90" width="430" height="150" as="geometry" />
        </mxCell>
        <mxCell id="lO95gF8njXk3iiTlrD5B-29" value="" style="sketch=0;outlineConnect=0;fontColor=#232F3E;gradientColor=none;fillColor=#4D27AA;strokeColor=none;dashed=0;verticalLabelPosition=bottom;verticalAlign=top;align=center;html=1;fontSize=12;fontStyle=0;aspect=fixed;pointerEvents=1;shape=mxgraph.aws4.nat_gateway;movable=1;resizable=1;rotatable=1;deletable=1;editable=1;locked=0;connectable=1;" vertex="1" parent="lO95gF8njXk3iiTlrD5B-10">
          <mxGeometry x="360" y="110" width="78" height="78" as="geometry" />
        </mxCell>
        <mxCell id="UEzPUAAOIrF-is8g5C7q-52" value="3" style="rounded=1;whiteSpace=wrap;html=1;fillColor=#007CBD;strokeColor=none;fontColor=#FFFFFF;fontStyle=1;fontSize=22;movable=1;resizable=1;rotatable=1;deletable=1;editable=1;locked=0;connectable=1;" parent="lO95gF8njXk3iiTlrD5B-10" vertex="1">
          <mxGeometry x="450" y="130" width="40" height="38" as="geometry" />
        </mxCell>
        <mxCell id="lO95gF8njXk3iiTlrD5B-25" value="" style="sketch=0;points=[[0,0,0],[0.25,0,0],[0.5,0,0],[0.75,0,0],[1,0,0],[0,1,0],[0.25,1,0],[0.5,1,0],[0.75,1,0],[1,1,0],[0,0.25,0],[0,0.5,0],[0,0.75,0],[1,0.25,0],[1,0.5,0],[1,0.75,0]];outlineConnect=0;fontColor=#232F3E;gradientColor=#F78E04;gradientDirection=north;fillColor=#D05C17;strokeColor=#ffffff;dashed=0;verticalLabelPosition=bottom;verticalAlign=top;align=center;html=1;fontSize=12;fontStyle=0;aspect=fixed;shape=mxgraph.aws4.resourceIcon;resIcon=mxgraph.aws4.compute;movable=1;resizable=1;rotatable=1;deletable=1;editable=1;locked=0;connectable=1;" vertex="1" parent="lO95gF8njXk3iiTlrD5B-10">
          <mxGeometry x="130" y="110" width="78" height="78" as="geometry" />
        </mxCell>
        <mxCell id="UEzPUAAOIrF-is8g5C7q-2" value="&lt;font style=&quot;font-size: 19px;&quot;&gt;AWS Cloud&lt;/font&gt;" style="points=[[0,0],[0.25,0],[0.5,0],[0.75,0],[1,0],[1,0.25],[1,0.5],[1,0.75],[1,1],[0.75,1],[0.5,1],[0.25,1],[0,1],[0,0.75],[0,0.5],[0,0.25]];outlineConnect=0;gradientColor=none;html=1;whiteSpace=wrap;fontSize=12;fontStyle=0;shape=mxgraph.aws4.group;grIcon=mxgraph.aws4.group_aws_cloud_alt;strokeColor=#232F3E;fillColor=none;verticalAlign=top;align=left;spacingLeft=30;fontColor=#232F3E;dashed=0;container=1;pointerEvents=0;collapsible=0;recursiveResize=0;movable=1;resizable=1;rotatable=1;deletable=1;editable=1;locked=0;connectable=1;" parent="1" vertex="1">
          <mxGeometry x="-200" y="20" width="1280" height="870" as="geometry" />
        </mxCell>
        <mxCell id="lO95gF8njXk3iiTlrD5B-15" value="&lt;font style=&quot;font-size: 18px;&quot;&gt;Private subnet e.g CIDR 10.0.2.0/23&lt;/font&gt;" style="points=[[0,0],[0.25,0],[0.5,0],[0.75,0],[1,0],[1,0.25],[1,0.5],[1,0.75],[1,1],[0.75,1],[0.5,1],[0.25,1],[0,1],[0,0.75],[0,0.5],[0,0.25]];outlineConnect=0;gradientColor=none;html=1;whiteSpace=wrap;fontSize=12;fontStyle=0;container=1;pointerEvents=0;collapsible=0;recursiveResize=0;shape=mxgraph.aws4.group;grIcon=mxgraph.aws4.group_security_group;grStroke=0;strokeColor=#147EBA;fillColor=#E6F2F8;verticalAlign=top;align=left;spacingLeft=30;fontColor=#147EBA;dashed=1;movable=1;resizable=1;rotatable=1;deletable=1;editable=1;locked=0;connectable=1;opacity=60;strokeWidth=2;" vertex="1" parent="UEzPUAAOIrF-is8g5C7q-2">
          <mxGeometry x="35" y="380" width="1200" height="180" as="geometry" />
        </mxCell>
        <mxCell id="lO95gF8njXk3iiTlrD5B-26" value="" style="sketch=0;points=[[0,0,0],[0.25,0,0],[0.5,0,0],[0.75,0,0],[1,0,0],[0,1,0],[0.25,1,0],[0.5,1,0],[0.75,1,0],[1,1,0],[0,0.25,0],[0,0.5,0],[0,0.75,0],[1,0.25,0],[1,0.5,0],[1,0.75,0]];outlineConnect=0;fontColor=#232F3E;gradientColor=#F78E04;gradientDirection=north;fillColor=#D05C17;strokeColor=#ffffff;dashed=0;verticalLabelPosition=bottom;verticalAlign=top;align=center;html=1;fontSize=12;fontStyle=0;aspect=fixed;shape=mxgraph.aws4.resourceIcon;resIcon=mxgraph.aws4.compute;" vertex="1" parent="lO95gF8njXk3iiTlrD5B-15">
          <mxGeometry x="220" y="50" width="78" height="78" as="geometry" />
        </mxCell>
        <mxCell id="UEzPUAAOIrF-is8g5C7q-55" value="6" style="rounded=1;whiteSpace=wrap;html=1;fillColor=#007CBD;strokeColor=none;fontColor=#FFFFFF;fontStyle=1;fontSize=22;" parent="lO95gF8njXk3iiTlrD5B-15" vertex="1">
          <mxGeometry x="335" y="70" width="40" height="38" as="geometry" />
        </mxCell>
        <mxCell id="lO95gF8njXk3iiTlrD5B-31" value="" style="sketch=0;outlineConnect=0;fontColor=#232F3E;gradientColor=none;fillColor=#4D27AA;strokeColor=none;dashed=0;verticalLabelPosition=bottom;verticalAlign=top;align=center;html=1;fontSize=12;fontStyle=0;aspect=fixed;pointerEvents=1;shape=mxgraph.aws4.internet_gateway;movable=1;resizable=1;rotatable=1;deletable=1;editable=1;locked=0;connectable=1;" vertex="1" parent="UEzPUAAOIrF-is8g5C7q-2">
          <mxGeometry x="610" y="11" width="60" height="60" as="geometry" />
        </mxCell>
        <mxCell id="lO95gF8njXk3iiTlrD5B-33" value="&lt;font style=&quot;font-size: 17px;&quot;&gt;Auto Scaling Group&lt;/font&gt;" style="rounded=0;whiteSpace=wrap;html=1;" vertex="1" parent="UEzPUAAOIrF-is8g5C7q-2">
          <mxGeometry x="555" y="290" width="160" height="51" as="geometry" />
        </mxCell>
        <mxCell id="lO95gF8njXk3iiTlrD5B-27" value="" style="sketch=0;outlineConnect=0;fontColor=#232F3E;gradientColor=none;fillColor=#4D27AA;strokeColor=none;dashed=0;verticalLabelPosition=bottom;verticalAlign=top;align=center;html=1;fontSize=12;fontStyle=0;aspect=fixed;pointerEvents=1;shape=mxgraph.aws4.application_load_balancer;movable=1;resizable=1;rotatable=1;deletable=1;editable=1;locked=0;connectable=1;" vertex="1" parent="UEzPUAAOIrF-is8g5C7q-2">
          <mxGeometry x="610" y="151" width="60" height="60" as="geometry" />
        </mxCell>
        <mxCell id="-QjtrjUzRDEMRZ5MF8oH-9" value="1" style="rounded=1;whiteSpace=wrap;html=1;fillColor=#007CBD;strokeColor=none;fontColor=#FFFFFF;fontStyle=1;fontSize=22;" parent="UEzPUAAOIrF-is8g5C7q-2" vertex="1">
          <mxGeometry x="150" y="10" width="40" height="38" as="geometry" />
        </mxCell>
        <mxCell id="UEzPUAAOIrF-is8g5C7q-41" value="2" style="rounded=1;whiteSpace=wrap;html=1;fillColor=#007CBD;strokeColor=none;fontColor=#FFFFFF;fontStyle=1;fontSize=22;arcSize=50;" parent="UEzPUAAOIrF-is8g5C7q-2" vertex="1">
          <mxGeometry x="675" y="22" width="40" height="38" as="geometry" />
        </mxCell>
        <mxCell id="lO95gF8njXk3iiTlrD5B-16" value="&lt;font style=&quot;font-size: 18px;&quot;&gt;Private subnet e.g. CIDR 10.0.3.0/23&lt;/font&gt;" style="points=[[0,0],[0.25,0],[0.5,0],[0.75,0],[1,0],[1,0.25],[1,0.5],[1,0.75],[1,1],[0.75,1],[0.5,1],[0.25,1],[0,1],[0,0.75],[0,0.5],[0,0.25]];outlineConnect=0;gradientColor=none;html=1;whiteSpace=wrap;fontSize=12;fontStyle=0;container=1;pointerEvents=0;collapsible=0;recursiveResize=0;shape=mxgraph.aws4.group;grIcon=mxgraph.aws4.group_security_group;grStroke=0;strokeColor=#147EBA;fillColor=#E6F2F8;verticalAlign=top;align=left;spacingLeft=30;fontColor=#147EBA;dashed=1;movable=1;resizable=1;rotatable=1;deletable=1;editable=1;locked=0;connectable=1;opacity=60;strokeWidth=2;" vertex="1" parent="UEzPUAAOIrF-is8g5C7q-2">
          <mxGeometry x="40" y="600" width="1200" height="200" as="geometry" />
        </mxCell>
        <mxCell id="lO95gF8njXk3iiTlrD5B-21" value="" style="sketch=0;points=[[0,0,0],[0.25,0,0],[0.5,0,0],[0.75,0,0],[1,0,0],[0,1,0],[0.25,1,0],[0.5,1,0],[0.75,1,0],[1,1,0],[0,0.25,0],[0,0.5,0],[0,0.75,0],[1,0.25,0],[1,0.5,0],[1,0.75,0]];outlineConnect=0;fontColor=#232F3E;gradientColor=#4D72F3;gradientDirection=north;fillColor=#3334B9;strokeColor=#ffffff;dashed=0;verticalLabelPosition=bottom;verticalAlign=top;align=center;html=1;fontSize=12;fontStyle=0;aspect=fixed;shape=mxgraph.aws4.resourceIcon;resIcon=mxgraph.aws4.database;movable=1;resizable=1;rotatable=1;deletable=1;editable=1;locked=0;connectable=1;" vertex="1" parent="lO95gF8njXk3iiTlrD5B-16">
          <mxGeometry x="220" y="50" width="78" height="78" as="geometry" />
        </mxCell>
        <mxCell id="lO95gF8njXk3iiTlrD5B-20" value="" style="sketch=0;points=[[0,0,0],[0.25,0,0],[0.5,0,0],[0.75,0,0],[1,0,0],[0,1,0],[0.25,1,0],[0.5,1,0],[0.75,1,0],[1,1,0],[0,0.25,0],[0,0.5,0],[0,0.75,0],[1,0.25,0],[1,0.5,0],[1,0.75,0]];outlineConnect=0;fontColor=#232F3E;gradientColor=#4D72F3;gradientDirection=north;fillColor=#3334B9;strokeColor=#ffffff;dashed=0;verticalLabelPosition=bottom;verticalAlign=top;align=center;html=1;fontSize=12;fontStyle=0;aspect=fixed;shape=mxgraph.aws4.resourceIcon;resIcon=mxgraph.aws4.database;" vertex="1" parent="lO95gF8njXk3iiTlrD5B-16">
          <mxGeometry x="909" y="50" width="78" height="78" as="geometry" />
        </mxCell>
        <mxCell id="lO95gF8njXk3iiTlrD5B-54" value="" style="shape=flexArrow;endArrow=classic;html=1;rounded=0;exitX=1;exitY=0.5;exitDx=0;exitDy=0;exitPerimeter=0;" edge="1" parent="lO95gF8njXk3iiTlrD5B-16" source="lO95gF8njXk3iiTlrD5B-21" target="lO95gF8njXk3iiTlrD5B-20">
          <mxGeometry width="50" height="50" relative="1" as="geometry">
            <mxPoint x="710" y="-210" as="sourcePoint" />
            <mxPoint x="760" y="-260" as="targetPoint" />
          </mxGeometry>
        </mxCell>
        <mxCell id="UEzPUAAOIrF-is8g5C7q-53" value="4" style="rounded=1;whiteSpace=wrap;html=1;fillColor=#007CBD;strokeColor=none;fontColor=#FFFFFF;fontStyle=1;fontSize=22;" parent="UEzPUAAOIrF-is8g5C7q-2" vertex="1">
          <mxGeometry x="230" y="170" width="40" height="38" as="geometry" />
        </mxCell>
        <mxCell id="UEzPUAAOIrF-is8g5C7q-54" value="5" style="rounded=1;whiteSpace=wrap;html=1;fillColor=#007CBD;strokeColor=none;fontColor=#FFFFFF;fontStyle=1;fontSize=22;" parent="UEzPUAAOIrF-is8g5C7q-2" vertex="1">
          <mxGeometry x="675" y="170" width="40" height="38" as="geometry" />
        </mxCell>
        <mxCell id="lO95gF8njXk3iiTlrD5B-51" value="" style="shape=link;html=1;rounded=0;" edge="1" parent="UEzPUAAOIrF-is8g5C7q-2" source="lO95gF8njXk3iiTlrD5B-27" target="lO95gF8njXk3iiTlrD5B-31">
          <mxGeometry width="100" relative="1" as="geometry">
            <mxPoint x="670" y="380" as="sourcePoint" />
            <mxPoint x="760" y="380" as="targetPoint" />
          </mxGeometry>
        </mxCell>
        <mxCell id="lO95gF8njXk3iiTlrD5B-52" value="" style="shape=flexArrow;endArrow=classic;startArrow=classic;html=1;rounded=0;" edge="1" parent="UEzPUAAOIrF-is8g5C7q-2" source="lO95gF8njXk3iiTlrD5B-33" target="lO95gF8njXk3iiTlrD5B-27">
          <mxGeometry width="100" height="100" relative="1" as="geometry">
            <mxPoint x="730" y="420" as="sourcePoint" />
            <mxPoint x="830" y="320" as="targetPoint" />
          </mxGeometry>
        </mxCell>
        <mxCell id="lO95gF8njXk3iiTlrD5B-53" value="" style="shape=flexArrow;endArrow=classic;startArrow=classic;html=1;rounded=0;" edge="1" parent="UEzPUAAOIrF-is8g5C7q-2" source="lO95gF8njXk3iiTlrD5B-21" target="lO95gF8njXk3iiTlrD5B-15">
          <mxGeometry width="100" height="100" relative="1" as="geometry">
            <mxPoint x="730" y="420" as="sourcePoint" />
            <mxPoint x="830" y="320" as="targetPoint" />
          </mxGeometry>
        </mxCell>
        <mxCell id="-QjtrjUzRDEMRZ5MF8oH-47" value="AWS 3 TIER ARCHITECTURE&lt;br&gt;" style="text;html=1;resizable=0;points=[];autosize=1;align=left;verticalAlign=top;spacingTop=-4;fontSize=30;fontStyle=1" parent="1" vertex="1">
          <mxGeometry x="250" y="-20" width="440" height="40" as="geometry" />
        </mxCell>
        <mxCell id="7OVz4w7n9kzEPWy-4BBC-3" value="" style="rounded=0;whiteSpace=wrap;html=1;fillColor=#EAEDED;fontSize=22;fontColor=#FFFFFF;strokeColor=none;labelBackgroundColor=none;" parent="1" vertex="1">
          <mxGeometry x="1107" y="52" width="539" height="1098" as="geometry" />
        </mxCell>
        <mxCell id="7OVz4w7n9kzEPWy-4BBC-4" value="1" style="rounded=1;whiteSpace=wrap;html=1;fillColor=#007CBD;strokeColor=none;fontColor=#FFFFFF;fontStyle=1;fontSize=22;labelBackgroundColor=none;" parent="1" vertex="1">
          <mxGeometry x="1124.5" y="64" width="40" height="38" as="geometry" />
        </mxCell>
        <mxCell id="7OVz4w7n9kzEPWy-4BBC-5" value="2" style="rounded=1;whiteSpace=wrap;html=1;fillColor=#007CBD;strokeColor=none;fontColor=#FFFFFF;fontStyle=1;fontSize=22;labelBackgroundColor=none;" parent="1" vertex="1">
          <mxGeometry x="1124.5" y="130" width="40" height="38" as="geometry" />
        </mxCell>
        <mxCell id="7OVz4w7n9kzEPWy-4BBC-6" value="3" style="rounded=1;whiteSpace=wrap;html=1;fillColor=#007CBD;strokeColor=none;fontColor=#FFFFFF;fontStyle=1;fontSize=22;labelBackgroundColor=none;" parent="1" vertex="1">
          <mxGeometry x="1124.5" y="230" width="40" height="38" as="geometry" />
        </mxCell>
        <mxCell id="lO95gF8njXk3iiTlrD5B-45" value="" style="edgeStyle=orthogonalEdgeStyle;rounded=0;orthogonalLoop=1;jettySize=auto;html=1;" edge="1" parent="1" source="7OVz4w7n9kzEPWy-4BBC-7" target="7OVz4w7n9kzEPWy-4BBC-16">
          <mxGeometry relative="1" as="geometry" />
        </mxCell>
        <mxCell id="7OVz4w7n9kzEPWy-4BBC-7" value="4" style="rounded=1;whiteSpace=wrap;html=1;fillColor=#007CBD;strokeColor=none;fontColor=#FFFFFF;fontStyle=1;fontSize=22;labelBackgroundColor=none;" parent="1" vertex="1">
          <mxGeometry x="1124.5" y="310" width="40" height="38" as="geometry" />
        </mxCell>
        <mxCell id="7OVz4w7n9kzEPWy-4BBC-8" value="5" style="rounded=1;whiteSpace=wrap;html=1;fillColor=#007CBD;strokeColor=none;fontColor=#FFFFFF;fontStyle=1;fontSize=22;labelBackgroundColor=none;" parent="1" vertex="1">
          <mxGeometry x="1124.5" y="390" width="40" height="38" as="geometry" />
        </mxCell>
        <mxCell id="7OVz4w7n9kzEPWy-4BBC-9" value="6" style="rounded=1;whiteSpace=wrap;html=1;fillColor=#007CBD;strokeColor=none;fontColor=#FFFFFF;fontStyle=1;fontSize=22;labelBackgroundColor=none;" parent="1" vertex="1">
          <mxGeometry x="1124.5" y="470" width="40" height="38" as="geometry" />
        </mxCell>
        <mxCell id="7OVz4w7n9kzEPWy-4BBC-13" value="&lt;font style=&quot;font-size: 18px;&quot;&gt;VPC: Virtual network dedicated to your AWS account&lt;/font&gt;" style="text;html=1;align=left;verticalAlign=top;spacingTop=-4;fontSize=14;labelBackgroundColor=none;whiteSpace=wrap;" parent="1" vertex="1">
          <mxGeometry x="1176" y="63.5" width="449" height="46.5" as="geometry" />
        </mxCell>
        <mxCell id="7OVz4w7n9kzEPWy-4BBC-14" value="I&lt;font style=&quot;font-size: 17px;&quot;&gt;nternet Gateway: Horizontally scaled, redundant and highly available&amp;nbsp;vac component&amp;nbsp;that allows communications between components in the VPC and the internet.&lt;/font&gt;" style="text;html=1;align=left;verticalAlign=top;spacingTop=-4;fontSize=14;labelBackgroundColor=none;whiteSpace=wrap;" parent="1" vertex="1">
          <mxGeometry x="1175" y="130" width="450" height="72.5" as="geometry" />
        </mxCell>
        <mxCell id="7OVz4w7n9kzEPWy-4BBC-15" value="&lt;font style=&quot;font-size: 16px;&quot;&gt;&lt;span&gt;Nat&amp;nbsp;&lt;/span&gt;Gateway: Allows resources in the private subnet to communicate with the internet through the bastion servers. Nat Getway is lauched in the public subnet.&lt;/font&gt;" style="text;html=1;align=left;verticalAlign=top;spacingTop=-4;fontSize=14;labelBackgroundColor=none;whiteSpace=wrap;" parent="1" vertex="1">
          <mxGeometry x="1174" y="230" width="450" height="60" as="geometry" />
        </mxCell>
        <mxCell id="7OVz4w7n9kzEPWy-4BBC-16" value="&lt;span&gt;&lt;font style=&quot;font-size: 16px;&quot;&gt;Bastion Server: Is an Amazon EC2 instance in a&amp;nbsp;public subnet that is securely configured to provide access to resources in a private subnet&lt;/font&gt;&lt;/span&gt;" style="text;html=1;align=left;verticalAlign=top;spacingTop=-4;fontSize=14;labelBackgroundColor=none;whiteSpace=wrap;" parent="1" vertex="1">
          <mxGeometry x="1174" y="310" width="450" height="70" as="geometry" />
        </mxCell>
        <mxCell id="7OVz4w7n9kzEPWy-4BBC-17" value="&lt;font style=&quot;font-size: 16px;&quot;&gt;Application Load Balancer: Routes traffic to targets - EC2 Instances, containers, IP addresses and lambda functions - based on the content of the request&lt;/font&gt;" style="text;html=1;align=left;verticalAlign=top;spacingTop=-4;fontSize=14;labelBackgroundColor=none;whiteSpace=wrap;" parent="1" vertex="1">
          <mxGeometry x="1174" y="390" width="449" height="70" as="geometry" />
        </mxCell>
        <mxCell id="7OVz4w7n9kzEPWy-4BBC-18" value="&lt;span&gt;&lt;font style=&quot;font-size: 17px;&quot;&gt;EC2 Instance&lt;/font&gt;&lt;/span&gt;" style="text;html=1;align=left;verticalAlign=top;spacingTop=-4;fontSize=14;labelBackgroundColor=none;whiteSpace=wrap;" parent="1" vertex="1">
          <mxGeometry x="1173" y="470" width="450" height="50" as="geometry" />
        </mxCell>
      </root>
    </mxGraphModel>
  </diagram>
</mxfile>
